<?xml version="1.0" encoding="utf-8"?>
<!-- Generator: Adobe Illustrator 26.1.0, SVG Export Plug-In . SVG Version: 6.00 Build 0)  -->
<svg version="1.1" id="easy-db-logo" xmlns="http://www.w3.org/2000/svg" xmlns:xlink="http://www.w3.org/1999/xlink" x="0px"
	 y="0px"  width="185" height="210" viewBox="0 0 185 210" style="enable-background:new 0 0 185 210;" xml:space="preserve">
<style type="text/css">
	.st0{fill:#3C931B;}
	.st1{fill:#55C12D;}
	.st2{fill:#EBEBEB;}
	.st3{fill:#FFFFFF;}
</style>
<path class="st0" d="M16.8,189L0,0.1h185l-16.8,188.8l-75.8,21"/>
<path class="st1" d="M92.5,193.8V15.6h75.6l-14.4,161.1"/>
<circle class="st1" cx="10" cy="7.5" r="3.9"/>
<circle class="st1" cx="21.7" cy="7.5" r="3.9"/>
<circle class="st1" cx="33.5" cy="7.5" r="3.9"/>
<g>
	<path class="st2" d="M92.4,163l-9.3-5.6c-0.7-0.4-1.5-0.7-2.2-0.7c-0.7,0-1.4,0.2-2,0.6c-2.5,1.5-2.9,1.6-5.4,2.5
		c-2.3,0.8-2.7,2.3-2.8,3.2c-0.2,2.4,2,3.6,2.7,4l13.3,7.9l0.1,0l0.1,0c1.8,1,3.7,1.4,5.6,1.4L92.4,163L92.4,163z"/>
	<path class="st2" d="M92.5,38v-3c-2.5,0-4.9,0.8-6.9,2.2L38.9,71.4c-3.7,2.7-5.7,7.6-5.2,12.8l5.2,56.6c0.4,4.3,2.9,8.2,6.6,10.3
		l11.3,6.4l0.1,0l0.1,0c5.6,2.7,7.8,2.9,10.8,2.9c4.3,0,8-1.4,10.5-4c2.8-2.9,4.2-7.2,4.1-12.5l-0.3-11.7c0.8,1.6,1.9,3,3.1,4.3
		c1.9,1.9,4.3,3.4,7.2,4.4v-21.6c-0.7-0.6-1.6-0.9-2.6-0.9h-5.6c-0.9,0-1.8,0.3-2.5,0.8l-0.3-13.6c1.1,7,5.4,10.6,11,12.6V85
		c-2.4,1-4.5,2.4-6.2,4.1c-2.8,2.9-4.5,6.6-5,10.8l-0.3-10.9c-0.1-2.5-2-4.5-4.4-4.5h-5.9c-1.1,0-2.2,0.5-3,1.3
		c-0.9,0.9-1.3,2.1-1.3,3.4l2.1,55c0,0.7-0.2,1.4-0.6,1.8c-0.4,0.4-1,0.6-1.7,0.6c-0.8,0-1.9-0.3-3-0.9l-11-6.4l-4.4-55.3l44.4-31.8
		l0.1,0.1V38"/>
</g>
<g>
	<path class="st3" d="M92.5,38v14.4l44.3,31.7l-4.3,55.3l-40,23.5v13.4c1.9,0,3.8-0.4,5.4-1.2l0.1-0.1l0.1-0.1l41.3-23.9
		c3.6-2.1,6.2-6.1,6.6-10.3l5.2-56.6c0.5-5.2-1.5-10.1-5.2-12.8L99.5,37.3c-2.1-1.5-4.5-2.2-7-2.2V38"/>
	<path class="st3" d="M128.6,107.2l0.2-0.2l0.1-0.2c0.5-0.8,0.8-1.7,0.9-2.6l0-0.1l0-0.1c-0.2-14.1-8.6-21.3-24.8-21.3
		c-4.8,0-8.9,0.8-12.4,2.3v33.4c3.3,1.2,7,1.8,10.9,2.3c6.1,0.7,10,1.5,11.8,2.5c0.7,0.4,0.7,0.4,0.6,1.3c-0.1,1.8-0.2,4.6-10.1,4.6
		c-10.6,0-11-2.6-11.6-6.5c-0.1-1.2-0.7-2.3-1.6-3v21.6c3.6,1.3,7.9,2,12.9,2c15,0,24.1-6.8,24.9-18.6c0.6-9.2-3.9-13.5-10.5-15.9
		h5.7C126.6,108.6,127.7,108.1,128.6,107.2z M108.7,106.2c-7.7-1.1-11.9-2.1-12.5-2.9c0,0-0.1-0.2-0.1-0.9c0-1.4,0-4.2,8.7-4.2
		c8.9,0,10.1,2.1,10.8,6.8c0.2,1.2,0.8,2.2,1.7,2.9C114.6,107.1,111.7,106.6,108.7,106.2z"/>
</g>
</svg>
